<?xml version="1.0" encoding="UTF-8"?>
<svg xmlns="http://www.w3.org/2000/svg" viewBox="63.479846 103.85154 81.540764 87.118721" version="1.1">
  <path fill="white" d="m 113.94447,103.85154 -11.42101,24.43572 -14.342279,-14.60841 2.655652,21.24883 -26.028902,-4.24987 17.795296,16.46773 -19.123381,11.68663 21.248316,1.59318 -14.342794,22.84202 22.5764,-14.6079 2.124934,22.31079 10.624158,-20.71709 15.9365,17.26407 -2.92179,-23.63887 24.43572,3.71864 -18.32705,-15.67088 20.18637,-11.15539 -20.18637,-2.39056 14.34279,-22.31078 -22.5764,12.74909 z m -5.04621,27.62312 0.53124,10.09293 8.2336,-4.51549 -5.31234,7.43727 9.56221,1.06247 -8.76535,5.31182 7.17165,6.3748 -10.09292,-2.39055 1.85931,10.62416 -7.70288,-8.49922 -4.24936,9.03045 -0.531231,-8.76484 -6.906038,4.51497 4.24987,-7.96798 -9.561691,-0.79686 7.702372,-4.7811 -8.233605,-6.90552 11.686625,2.12493 -1.062468,-9.03045 7.171136,6.90552 z" />
</svg>
